<?xml version="1.0" standalone="no"?>
<!DOCTYPE svg PUBLIC "-//W3C//DTD SVG 20010904//EN"
 "http://www.w3.org/TR/2001/REC-SVG-20010904/DTD/svg10.dtd">
<svg version="1.0" xmlns="http://www.w3.org/2000/svg"
 width="518.000000pt" height="546.000000pt" viewBox="0 0 518.000000 546.000000"
 preserveAspectRatio="xMidYMid meet" fill="#000000">
<metadata>
Created by potrace 1.16, written by Peter Selinger 2001-2019
</metadata>
<g transform="translate(0.000000,546.000000) scale(0.100000,-0.100000)"
fill="#228B22" stroke="none">
<path d="M2550 5184 c-99 -12 -250 -75 -440 -184 -36 -20 -92 -52 -125 -69
-33 -18 -130 -72 -215 -121 -85 -48 -228 -129 -318 -179 -256 -145 -394 -230
-430 -264 -46 -44 -117 -144 -140 -198 -10 -24 -27 -78 -37 -119 -17 -69 -19
-128 -19 -690 0 -684 -2 -664 70 -819 62 -134 154 -204 534 -406 91 -49 201
-108 245 -133 366 -204 645 -353 734 -391 104 -45 108 -46 211 -45 95 0 112 3
185 33 97 39 360 175 548 282 75 44 139 79 141 79 2 0 77 41 167 91 90 50 224
125 298 166 74 41 158 92 186 113 111 82 175 180 221 338 l25 88 -3 640 c-3
638 -3 639 -27 709 -58 176 -131 258 -335 379 -285 168 -872 494 -1076 596
-178 90 -284 117 -400 104z m225 -125 c89 -33 459 -234 1150 -623 246 -138
293 -189 345 -379 19 -68 20 -103 20 -682 0 -685 0 -681 -76 -819 -64 -117
-80 -129 -624 -434 -379 -213 -737 -405 -800 -430 -54 -21 -81 -25 -165 -25
-121 0 -182 19 -335 103 -58 32 -202 111 -320 175 -118 65 -235 129 -260 143
-25 13 -103 56 -175 94 -71 39 -159 87 -195 108 -36 21 -87 50 -115 65 -186
102 -265 209 -294 392 -7 47 -11 274 -11 650 0 626 2 644 56 759 37 78 110
153 195 200 41 22 115 64 164 93 83 49 305 175 400 226 22 12 63 36 91 53 120
71 526 293 570 313 129 55 263 62 379 18z"/>
<path d="M2509 4951 c-27 -9 -467 -249 -634 -346 -49 -29 -153 -88 -229 -130
-332 -185 -453 -257 -488 -291 -46 -43 -94 -140 -108 -213 -13 -72 -13 -1130
0 -1202 24 -128 103 -230 226 -295 33 -16 124 -66 204 -111 80 -44 262 -144
405 -223 143 -78 330 -182 415 -230 195 -110 236 -124 346 -118 72 4 93 9 156
42 111 58 371 201 698 384 162 91 340 191 395 221 168 94 247 195 266 340 10
77 10 787 0 1071 -6 182 -8 199 -32 251 -37 79 -80 116 -241 204 -154 84 -214
118 -378 213 -58 33 -154 87 -215 119 -60 33 -185 101 -277 152 -272 149 -308
164 -402 168 -45 1 -93 -1 -107 -6z m242 -143 c133 -63 531 -281 929 -508 74
-43 162 -91 196 -108 73 -37 124 -83 124 -112 0 -12 5 -31 12 -43 20 -39 30
-739 13 -1042 -14 -275 -23 -318 -67 -349 -33 -24 -51 -20 -89 20 -42 45 -85
64 -141 64 -62 0 -114 -17 -170 -56 -61 -41 -92 -47 -216 -42 -87 3 -103 7
-157 37 -78 42 -138 61 -201 61 -62 0 -95 -10 -202 -63 -67 -33 -97 -42 -151
-45 -87 -5 -166 12 -238 50 -139 74 -258 76 -371 4 -119 -75 -256 -70 -416 14
-58 30 -109 50 -129 50 -68 0 -110 -20 -163 -77 l-51 -55 -35 31 c-20 17 -46
55 -59 83 l-23 53 0 595 -1 595 33 67 c29 60 40 72 105 113 78 50 210 126 377
220 58 32 195 109 305 170 501 282 521 293 595 319 34 12 102 -4 191 -46z
m-1153 -2245 l94 -48 131 0 132 0 90 49 c86 46 92 48 160 44 58 -3 86 -11 158
-46 166 -79 299 -78 462 3 83 42 96 45 165 45 72 0 79 -2 155 -47 l80 -48 136
0 136 0 91 48 c71 36 102 47 138 47 56 0 124 -19 124 -34 0 -7 -33 -29 -72
-51 -40 -21 -91 -50 -113 -65 -22 -15 -110 -62 -195 -105 -85 -43 -168 -88
-185 -100 -48 -34 -232 -139 -335 -190 -52 -27 -97 -51 -100 -55 -10 -13 -166
-80 -206 -88 -69 -15 -192 29 -337 122 -81 52 -142 84 -526 279 -195 98 -386
201 -424 227 l-68 49 43 4 c149 13 168 10 266 -40z"/>
<path d="M2498 4571 c-40 -27 -89 -67 -109 -88 -54 -57 -109 -142 -109 -169 0
-15 -6 -24 -15 -24 -17 0 -20 16 -5 25 6 3 10 10 10 15 0 8 -56 -15 -140 -58
-19 -9 -41 -30 -50 -47 -8 -16 -41 -74 -72 -128 -32 -54 -60 -108 -64 -122 -4
-18 7 -46 46 -110 29 -47 50 -89 47 -91 -12 -12 -46 18 -77 66 -81 127 -222
174 -346 116 -58 -27 -120 -94 -136 -148 -9 -31 -16 -38 -37 -38 -39 -1 -102
-33 -138 -71 -69 -73 -86 -174 -40 -251 32 -55 105 -104 171 -117 26 -5 174
-6 329 -3 268 4 284 6 327 27 106 54 156 173 115 272 -8 19 -15 39 -15 43 0 3
25 2 55 -3 52 -10 55 -12 55 -39 0 -16 14 -63 31 -105 24 -56 46 -89 86 -129
49 -48 160 -114 192 -114 29 0 139 68 186 115 52 52 135 196 135 233 0 23 15
29 132 52 45 9 62 18 78 40 11 15 20 31 20 34 0 4 23 46 50 95 28 49 50 99 50
110 0 12 -19 58 -42 103 -22 44 -50 108 -62 141 -18 52 -26 62 -56 73 -19 7
-63 13 -98 13 -50 1 -64 4 -68 19 -19 58 -35 84 -94 152 -83 96 -95 106 -155
135 -74 36 -102 33 -187 -24z m210 -127 c93 -102 132 -153 132 -171 0 -8 -43
-42 -96 -76 -78 -50 -100 -70 -119 -107 l-23 -45 -7 38 c-8 43 -39 72 -126
118 -79 42 -96 67 -78 111 18 43 134 160 184 186 38 19 42 19 68 4 16 -10 45
-35 65 -58z m-365 -294 c4 -19 17 -69 28 -110 20 -75 20 -75 0 -120 -11 -25
-22 -63 -26 -85 -15 -93 -11 -88 -63 -80 -91 14 -112 29 -176 126 -50 75 -58
94 -48 107 6 10 20 33 31 52 11 19 43 58 73 87 42 41 61 53 93 56 72 7 79 5
88 -33z m741 -40 c17 -42 41 -92 52 -112 l22 -36 -25 -43 c-96 -166 -99 -169
-194 -169 -42 0 -49 3 -53 23 -3 12 -12 55 -22 96 -13 57 -15 96 -10 169 10
146 7 140 79 145 125 7 117 11 151 -73z m-618 -7 c31 -33 63 -99 64 -131 0
-13 -7 -37 -17 -55 -26 -52 -96 -142 -100 -130 -5 13 42 170 56 192 7 10 2 30
-15 63 -21 42 -32 88 -19 88 2 0 16 -12 31 -27z m308 -68 c-18 -71 -18 -74 22
-225 6 -24 5 -23 -30 10 -64 60 -120 139 -109 153 6 6 34 43 63 80 32 41 56
65 62 59 5 -5 2 -36 -8 -77z m-1001 -169 c52 -21 94 -71 114 -133 l18 -58 57
0 c68 -1 120 -35 138 -90 18 -56 -16 -125 -73 -145 -18 -6 -138 -10 -299 -10
-229 0 -275 2 -304 16 -70 33 -91 91 -58 160 21 44 59 64 121 64 26 0 53 4 59
8 5 4 16 32 22 63 14 62 44 98 102 123 44 19 62 19 103 2z m912 -136 c33 -17
79 -35 103 -40 38 -10 42 -14 42 -42 0 -69 -90 -194 -176 -244 l-43 -25 -53
34 c-98 63 -141 124 -154 219 l-6 43 48 19 c134 52 169 65 174 65 2 1 31 -13
65 -29z"/>
<path d="M3398 4275 c-74 -39 -128 -125 -128 -202 0 -57 41 -136 82 -160 l35
-21 -3 -107 -3 -108 -51 -17 c-68 -23 -94 -50 -130 -136 -33 -80 -35 -95 -19
-159 13 -50 76 -130 112 -141 12 -4 34 -15 49 -25 36 -26 74 -24 136 7 54 27
113 88 131 137 9 22 17 27 45 27 29 0 38 -6 57 -36 56 -92 192 -76 254 30 30
52 32 96 4 153 -22 46 -59 78 -102 88 -66 17 -149 -28 -162 -85 -6 -28 -9 -30
-56 -30 -44 0 -49 2 -49 23 0 31 -32 80 -74 113 l-36 29 0 107 0 107 54 24
c114 53 159 187 101 303 -48 96 -152 130 -247 79z m129 -100 c53 -37 46 -128
-12 -173 -38 -30 -56 -28 -98 13 -50 49 -49 93 6 153 24 26 72 29 104 7z m-56
-643 c27 -24 33 -37 36 -83 5 -66 -17 -115 -65 -143 -29 -16 -39 -17 -72 -7
-58 17 -90 61 -90 125 0 81 47 135 117 136 33 0 50 -6 74 -28z"/>
<path d="M2110 3070 c-30 -10 -81 -32 -112 -48 -106 -56 -236 -51 -376 12 -64
29 -92 36 -141 36 -71 0 -210 -42 -237 -71 -15 -17 -15 -22 -2 -56 12 -33 18
-38 44 -37 16 1 62 14 103 29 91 33 127 29 220 -23 l66 -37 136 0 135 0 93 44
c84 40 101 44 166 44 68 0 81 -3 168 -47 85 -43 104 -49 180 -53 101 -7 162 6
267 56 66 32 86 36 165 39 l90 3 69 -42 c57 -34 84 -44 148 -52 107 -14 201 1
289 47 92 49 169 50 270 6 76 -34 104 -30 115 15 11 43 -4 63 -74 96 -54 25
-84 33 -154 37 -86 5 -86 5 -174 -39 -87 -43 -90 -44 -189 -44 -96 1 -104 3
-190 42 -162 74 -242 75 -391 1 -75 -36 -99 -43 -163 -47 -93 -4 -167 12 -251
55 -111 56 -179 65 -270 34z"/>
<path d="M4466 4255 c63 -153 66 -190 65 -900 -2 -688 -1 -680 -62 -828 -38
-91 -61 -129 -128 -206 -60 -70 -135 -122 -311 -216 -63 -34 -137 -75 -165
-92 -75 -46 -622 -343 -683 -371 -63 -29 -66 -51 -7 -70 32 -11 140 -13 545
-8 492 5 599 10 591 31 -2 6 6 14 18 20 11 5 21 13 21 18 0 4 5 5 10 2 6 -3
10 -2 10 3 0 13 39 22 46 11 3 -5 16 -2 30 7 22 15 85 26 141 26 12 0 20 5 17
12 -3 7 11 17 31 25 19 7 40 21 45 32 6 10 16 19 22 19 7 0 22 9 34 21 12 11
30 21 42 22 12 0 18 6 15 14 -3 7 0 13 6 13 20 0 91 67 91 86 0 6 7 17 15 24
8 7 15 19 15 27 0 8 7 21 15 29 11 11 12 20 5 34 -13 25 -13 30 4 30 8 0 13 8
12 18 0 10 5 16 13 14 10 -2 12 1 5 10 -5 7 -8 27 -7 43 2 17 4 71 6 121 2 50
8 97 12 104 5 8 4 11 -2 7 -6 -4 -13 12 -17 40 -9 65 -8 113 3 113 8 0 13 35
11 88 0 9 0 31 0 49 0 17 -4 34 -10 38 -8 5 -8 11 0 20 7 8 7 15 1 19 -5 4 -8
28 -6 54 10 119 7 214 -6 206 -7 -4 -6 3 1 17 7 13 14 75 16 147 3 68 7 128
10 133 3 5 3 13 0 17 -3 5 1 20 9 35 11 22 11 26 -1 31 -13 5 -13 9 1 29 13
20 14 36 6 88 -5 35 -16 83 -24 105 -36 99 -191 312 -368 505 -48 52 -103 112
-123 134 l-37 40 17 -40z"/>
<path d="M725 2495 c11 -65 54 -151 126 -249 112 -151 162 -218 194 -255 81
-96 294 -292 382 -352 32 -21 69 -46 82 -56 22 -16 50 -18 275 -17 252 1 323
9 333 40 2 6 -30 23 -71 38 -41 15 -114 50 -163 78 -145 84 -528 296 -688 381
-159 85 -236 134 -299 192 -21 20 -44 39 -51 43 -6 4 -27 33 -46 65 -19 32
-44 75 -57 95 l-23 37 6 -40z"/>
<path d="M1176 1379 l-26 -20 0 -268 c0 -247 1 -269 18 -284 16 -15 46 -17
210 -17 l192 0 17 34 c14 30 14 39 3 66 -18 43 -42 50 -176 50 l-114 0 0 201
0 201 -29 29 c-35 34 -59 36 -95 8z"/>
<path d="M1696 1376 c-26 -25 -26 -26 -26 -204 0 -212 10 -253 77 -318 112
-109 296 -95 392 30 52 67 61 114 59 308 -1 137 -3 153 -22 174 -30 33 -67 39
-96 16 -28 -23 -39 -94 -39 -270 -1 -124 -7 -144 -51 -167 -47 -24 -95 -19
-132 14 l-33 29 -5 181 c-5 164 -7 182 -25 200 -34 34 -70 37 -99 7z"/>
<path d="M2944 1390 c-51 -20 -54 -37 -54 -298 0 -196 3 -249 15 -272 26 -49
74 -49 109 2 13 18 16 52 16 157 l0 134 26 -24 c14 -13 69 -78 122 -143 135
-166 127 -159 175 -153 23 3 47 14 54 23 10 14 13 82 13 279 0 287 1 285 -62
300 -22 6 -33 1 -58 -23 l-30 -30 0 -134 -1 -133 -22 30 c-43 58 -205 242
-237 268 -34 29 -35 30 -66 17z"/>
<path d="M622 1379 c-42 -15 -43 -26 -40 -299 3 -246 4 -263 22 -276 29 -21
80 -18 102 7 15 16 20 40 22 104 l4 83 119 3 c132 4 152 13 152 69 0 57 -19
65 -153 62 l-120 -2 0 60 0 60 145 0 c135 0 145 1 165 22 27 29 25 64 -5 94
l-25 25 -186 -3 c-101 -2 -193 -6 -202 -9z"/>
<path d="M2360 1377 l-25 -13 -3 -263 c-2 -224 0 -268 13 -287 15 -24 17 -24
209 -24 174 0 195 2 209 18 29 32 32 75 7 97 -19 17 -41 21 -159 25 l-136 5
-3 41 -3 41 117 6 c137 7 164 19 164 71 0 57 -21 66 -153 66 l-117 0 0 45 0
45 129 0 c128 0 130 0 150 26 24 31 27 62 7 90 -13 17 -29 19 -198 22 -135 2
-190 -1 -208 -11z"/>
<path d="M3531 1362 c-18 -18 -22 -30 -17 -54 10 -52 21 -58 107 -58 l79 0 0
-204 c0 -112 3 -212 6 -221 4 -8 19 -22 34 -30 33 -17 84 -4 100 25 6 11 10
107 10 218 0 230 -10 212 112 212 58 0 69 3 82 22 9 12 16 32 16 43 0 23 -34
65 -53 66 -7 0 -111 1 -232 2 -218 2 -220 2 -244 -21z"/>
<path d="M4172 1374 c-22 -15 -22 -17 -22 -285 0 -332 -11 -310 147 -303 197
9 229 19 312 97 96 92 119 218 60 335 -51 103 -123 148 -258 163 -132 13 -213
11 -239 -7z m288 -146 c24 -13 53 -35 63 -50 28 -38 34 -116 12 -161 -24 -50
-98 -87 -177 -87 l-58 0 0 144 c0 79 -3 151 -6 160 -10 27 110 22 166 -6z"/>
<path d="M4834 1290 c26 -54 40 -105 52 -182 l17 -107 -35 -68 c-19 -37 -47
-86 -61 -107 -15 -21 -27 -43 -27 -48 0 -5 20 -31 45 -57 65 -69 77 -130 46
-224 -30 -88 -98 -165 -184 -206 -58 -27 -189 -61 -237 -61 -12 0 -18 -4 -15
-10 9 -14 -41 -13 -82 2 -18 7 -32 17 -29 24 3 9 -155 13 -642 19 -672 8
-1028 3 -1046 -15 -6 -6 -6 -10 0 -10 5 0 36 -5 69 -10 111 -18 338 -32 685
-41 190 -4 379 -12 421 -16 42 -4 92 -5 111 -2 19 3 43 2 54 -2 41 -16 19 -16
-1261 -20 -1282 -4 -1666 -1 -1685 11 -13 9 -13 10 0 11 8 0 26 3 40 5 25 5
108 5 185 0 22 -1 58 2 80 7 42 9 574 19 908 16 137 -1 197 2 197 10 0 6 9 11
21 11 11 0 17 5 14 10 -3 6 2 10 11 10 10 0 14 3 10 8 -4 4 -427 9 -939 12
l-932 5 -59 24 c-38 15 -76 41 -105 70 -25 26 -41 37 -37 26 6 -17 4 -17 -18
4 -58 55 -12 -61 61 -151 32 -40 58 -77 58 -83 1 -18 27 -59 61 -98 19 -20 34
-42 34 -47 0 -7 771 -10 2280 -10 l2280 0 0 503 0 503 -117 116 c-65 65 -131
127 -148 139 -16 12 -49 41 -73 63 l-43 41 35 -75z"/>
<path d="M2551 629 c-17 -10 -34 -26 -37 -34 -12 -30 6 -65 41 -82 51 -24 47
-47 -6 -38 -36 6 -40 5 -37 -11 2 -11 18 -27 37 -36 30 -15 37 -15 61 -3 67
34 68 87 3 123 -57 31 -58 55 -3 46 43 -7 51 3 23 28 -30 25 -49 27 -82 7z"/>
<path d="M2922 638 c-13 -13 -17 -173 -6 -202 5 -12 21 -16 71 -16 64 0 64 0
61 28 -3 24 -7 27 -43 28 l-40 0 -3 76 c-3 79 -17 109 -40 86z"/>
<path d="M3349 627 c-19 -12 -41 -37 -49 -54 -17 -36 -30 -43 -30 -15 0 31
-62 82 -98 82 -66 0 -122 -48 -122 -104 0 -69 72 -126 140 -111 34 8 80 57 81
88 0 18 3 17 14 -9 19 -43 70 -84 105 -84 54 0 78 16 90 61 6 23 8 45 3 49 -4
5 -28 10 -53 12 -39 3 -45 0 -48 -17 -2 -13 5 -24 19 -30 22 -10 28 -27 11
-33 -17 -5 -72 49 -72 72 0 38 32 59 78 51 53 -9 65 10 28 42 -34 29 -54 29
-97 0z"/>
<path d="M4008 634 c-35 -19 -52 -49 -40 -71 6 -9 27 -28 48 -42 45 -31 58
-57 23 -46 -41 13 -54 11 -57 -12 -2 -16 5 -26 27 -37 41 -22 58 -20 86 9 17
16 25 35 25 58 0 28 -6 37 -40 56 -56 31 -62 46 -17 38 33 -5 37 -3 37 15 0
23 -26 47 -50 47 -8 0 -27 -6 -42 -15z"/>
<path d="M616 554 c-51 -96 -54 -109 -27 -123 15 -9 22 -6 35 14 12 18 25 25
49 25 37 0 51 -8 60 -33 9 -25 41 -17 45 10 2 12 -15 61 -37 108 -53 113 -64
113 -125 -1z"/>
<path d="M800 615 c0 -23 4 -25 40 -25 55 0 53 -22 -6 -76 -34 -31 -45 -48
-42 -66 3 -22 7 -23 88 -23 83 0 85 0 88 25 3 24 1 25 -43 22 -27 -3 -45 0
-45 7 0 5 21 35 46 66 64 79 59 89 -44 93 -82 3 -82 3 -82 -23z"/>
<path d="M994 625 c-4 -8 -4 -47 -2 -86 3 -63 7 -74 31 -95 40 -34 90 -32 128
5 27 27 29 35 29 104 0 59 -3 76 -16 81 -30 12 -34 5 -34 -61 0 -81 -8 -96
-46 -91 -28 3 -29 5 -32 58 -3 82 -10 100 -33 100 -11 0 -22 -7 -25 -15z"/>
<path d="M1216 624 c-8 -20 -8 -152 0 -181 4 -14 14 -23 25 -23 14 0 19 7 19
30 0 17 4 30 10 30 5 0 25 -13 43 -30 19 -16 40 -30 46 -30 16 0 13 32 -5 59
-15 21 -15 24 5 42 12 11 21 24 21 29 0 24 -27 63 -51 76 -38 19 -105 18 -113
-2z"/>
<path d="M1402 533 l3 -108 65 0 c58 0 65 2 65 20 0 16 -8 21 -42 23 -52 4
-60 29 -11 34 57 5 48 57 -10 58 -39 0 -19 25 24 30 31 4 39 9 39 25 0 18 -8
20 -68 23 l-68 3 3 -108z"/>
<path d="M1746 624 c-7 -17 -8 -194 -2 -194 2 0 11 -3 20 -6 13 -5 16 3 16 52
l1 59 52 -58 c76 -84 87 -78 87 53 0 91 -5 110 -31 110 -16 0 -19 -8 -19 -52
l-1 -53 -27 31 c-15 17 -35 41 -44 52 -21 26 -43 28 -52 6z"/>
<path d="M1974 608 c-34 -30 -36 -34 -31 -82 4 -42 10 -55 38 -78 39 -33 81
-36 126 -9 33 20 54 74 35 93 -5 5 -29 8 -53 6 -32 -2 -45 -8 -47 -20 -2 -13
3 -18 17 -18 12 0 21 -6 21 -15 0 -19 -30 -19 -58 1 -45 31 -10 130 38 104 48
-25 89 0 50 32 -36 29 -93 24 -136 -14z"/>
<path d="M2168 569 c-1 -41 -1 -87 0 -104 4 -49 42 -58 42 -9 0 33 22 30 48
-6 22 -29 55 -40 66 -21 3 5 -3 20 -14 34 -25 31 -25 39 0 62 49 45 3 106 -85
113 l-55 4 -2 -73z"/>
<path d="M2354 627 c-3 -8 -3 -56 -2 -108 l3 -94 65 0 c64 0 65 1 68 28 3 27
3 27 -37 21 -33 -5 -41 -4 -41 9 0 9 13 17 36 21 29 6 35 11 32 29 -2 17 -11
23 -35 25 -50 5 -44 32 7 32 36 0 40 3 40 25 0 24 -2 25 -65 25 -45 0 -67 -4
-71 -13z"/>
<path d="M2696 619 c-14 -11 -26 -28 -26 -38 0 -19 31 -51 68 -70 12 -6 22
-19 22 -27 0 -13 -8 -14 -40 -9 -46 8 -54 -9 -21 -39 28 -25 79 -17 104 16 27
37 17 69 -33 97 -51 28 -51 41 0 41 44 0 49 8 22 33 -25 23 -64 21 -96 -4z"/>
<path d="M3595 558 c-7 -89 3 -138 30 -138 11 0 15 10 15 35 0 33 2 35 33 35
50 0 77 24 77 70 0 52 -34 80 -100 80 l-48 0 -7 -82z"/>
<path d="M3771 556 c4 -73 7 -88 28 -110 36 -38 91 -36 125 5 23 27 26 39 26
105 0 59 -3 74 -15 74 -8 0 -18 1 -22 3 -5 1 -10 -32 -13 -73 -5 -70 -7 -75
-29 -78 -34 -5 -51 22 -51 79 0 61 -7 79 -32 79 -19 0 -20 -6 -17 -84z"/>
<path d="M4155 627 c-3 -7 -4 -56 -3 -108 3 -88 4 -94 25 -97 19 -3 22 2 25
35 3 36 5 38 40 41 36 3 37 2 40 -35 2 -30 7 -38 23 -38 18 0 20 8 23 94 3 94
-5 121 -34 121 -10 0 -14 -13 -14 -39 0 -40 -11 -51 -51 -51 -18 0 -23 11 -31
65 -4 23 -36 33 -43 12z"/>
<path d="M4367 634 c-9 -9 -9 -140 -1 -183 l7 -32 61 3 c55 3 61 5 64 26 3 20
-1 22 -37 22 -51 0 -58 27 -8 32 24 2 32 8 32 23 0 14 -8 21 -30 25 -18 3 -31
12 -33 23 -3 14 4 17 38 17 37 0 41 2 38 23 -3 20 -9 22 -63 25 -34 2 -64 0
-68 -4z"/>
<path d="M4530 546 c0 -108 5 -126 31 -126 14 0 19 7 19 29 0 44 15 45 47 5
23 -29 34 -35 51 -30 28 9 28 24 0 53 l-21 23 21 23 c29 31 28 53 -7 88 -26
25 -37 29 -85 29 l-56 0 0 -94z"/>
</g>
</svg>
